# xmcd
#
# Track frame offsets:
#	150
#	15707
#	32728
#	47433
#	62326
#	80919
#	97971
#	112826
#	129729
#	143149
#	161069
#	175606
#	197926
#
# Disc length: 2847 seconds
#
# Revision: 2
# Processed by: cddbd v1.5.2PL0 Copyright (c) Steve Scherf et al.
# Submitted via: EZCDAudioConverter 6.0.5.1
#
DISCID=a60b1d0d
DTITLE=Scotty McCreery - See You Tonight
DYEAR=2013
DGENRE=Country
TTITLE0=Now
TTITLE1=See You Tonight
TTITLE2=Get Gone With You
TTITLE3=Feelin' It
TTITLE4=Feel Good Summer Song
TTITLE5=Buzzin'
TTITLE6=Can You Feel It
TTITLE7=The Dash
TTITLE8=Blue Jean Baby
TTITLE9=Forget To Forget You
TTITLE10=I Don't Wanna Be Your Friend
TTITLE11=Carolina Moon
TTITLE12=Something More
EXTD=
EXTT0=
EXTT1=
EXTT2=
EXTT3=
EXTT4=
EXTT5=
EXTT6=
EXTT7=
EXTT8=
EXTT9=
EXTT10=
EXTT11=
EXTT12=
PLAYORDER=
